<svg version="1.2" xmlns="http://www.w3.org/2000/svg" viewBox="0 0 1268 320" width="1268" height="320">
	<title>thanhquan_logo-ai</title>
	<style>
		.s0 { fill: #19b36a } 
		.s1 { fill: #f05536 } 
		.s2 { fill: #f05a37 } 
	</style>
	<g id="_Artboards_">
	</g>
	<g id="Layer 1">
		<path id="&lt;Path&gt;" class="s0" d="m45.6 88.4h256.1c2.1 0 3.8 1.3 3.8 3v101.4c0 1.7-1.7 3.1-3.8 3.1h-256.1c-2.1 0-3.8-1.4-3.8-3.1v-101.4c0-1.7 1.7-3 3.8-3z"/>
		<g id="&lt;Group&gt;">
			<path id="&lt;Path&gt;" class="s0" d="m45.6 88.4h256.1c2.1 0 3.8 1.3 3.8 3v101.4c0 1.7-1.7 3.1-3.8 3.1h-256.1c-2.1 0-3.8-1.4-3.8-3.1v-101.4c0-1.7 1.7-3 3.8-3z"/>
			<path id="&lt;Path&gt;" class="s1" d="m50.5 93.6h16c1.1 0 2 0.7 2 1.7v13.2c0 0.9-0.9 1.6-2 1.6h-16c-1.1 0-2-0.7-2-1.6v-13.2c0-1 0.9-1.7 2-1.7z"/>
			<path id="&lt;Path&gt;" class="s1" d="m145.2 93.6h16c1.1 0 2 0.7 2 1.7v13.2c0 0.9-0.9 1.6-2 1.6h-16c-1.1 0-2-0.7-2-1.6v-13.2c0-1 0.9-1.7 2-1.7z"/>
			<path id="&lt;Path&gt;" class="s1" d="m121.7 93.6h16c1.1 0 2 0.7 2 1.7v13.2c0 0.9-0.9 1.6-2 1.6h-16c-1.1 0-2-0.7-2-1.6v-13.2c0-1 0.9-1.7 2-1.7z"/>
			<path id="&lt;Path&gt;" class="s1" d="m98 93.4h16c1.1 0 2 0.8 2 1.7v13.2c0 0.9-0.9 1.7-2 1.7h-16c-1.1 0-2-0.8-2-1.7v-13.2c0-0.9 0.9-1.7 2-1.7z"/>
			<path id="&lt;Path&gt;" class="s1" d="m74.6 93.4h16c1.1 0 2 0.8 2 1.7v13.2c0 0.9-0.9 1.7-2 1.7h-16c-1.1 0-2-0.8-2-1.7v-13.2c0-0.9 0.9-1.7 2-1.7z"/>
			<path id="&lt;Path&gt;" class="s1" d="m98 113.4h16c1.1 0 2 0.7 2 1.6v13.2c0 1-0.9 1.7-2 1.7h-16c-1.1 0-2-0.7-2-1.7v-13.2c0-0.9 0.9-1.6 2-1.6z"/>
			<path id="&lt;Path&gt;" class="s1" d="m98 153.5h16c1.1 0 2 0.8 2 1.7v13.2c0 0.9-0.9 1.6-2 1.6h-16c-1.1 0-2-0.7-2-1.6v-13.2c0-0.9 0.9-1.7 2-1.7z"/>
			<path id="&lt;Path&gt;" class="s1" d="m98 133.3h16c1.1 0 2 0.8 2 1.7v13.2c0 0.9-0.9 1.6-2 1.6h-16c-1.1 0-2-0.7-2-1.6v-13.2c0-0.9 0.9-1.7 2-1.7z"/>
			<path id="&lt;Path&gt;" class="s1" d="m98 173.6h16c1.1 0 2 0.8 2 1.7v13.2c0 0.9-0.9 1.6-2 1.6h-16c-1.1 0-2-0.7-2-1.6v-13.2c0-0.9 0.9-1.7 2-1.7z"/>
			<path id="&lt;Path&gt;" class="s1" d="m181.7 93.6h16c1.1 0 2 0.7 2 1.7v13.2c0 0.9-0.9 1.6-2 1.6h-16c-1.1 0-2-0.7-2-1.6v-13.2c0-1 0.9-1.7 2-1.7z"/>
			<path id="&lt;Path&gt;" class="s1" d="m280.5 93.6h16c1.1 0 2 0.7 2 1.7v13.2c0 0.9-0.9 1.6-2 1.6h-16c-1.1 0-2-0.7-2-1.6v-13.2c0-1 0.9-1.7 2-1.7z"/>
			<path id="&lt;Path&gt;" class="s1" d="m256.1 93.6h16c1.1 0 2 0.7 2 1.7v13.2c0 0.9-0.9 1.6-2 1.6h-16c-1.1 0-2-0.7-2-1.6v-13.2c0-1 0.9-1.7 2-1.7z"/>
			<path id="&lt;Path&gt;" class="s1" d="m231.6 93.6h16c1.1 0 2 0.7 2 1.7v13.2c0 0.9-0.9 1.6-2 1.6h-16c-1.1 0-2-0.7-2-1.6v-13.2c0-1 0.9-1.7 2-1.7z"/>
			<path id="&lt;Path&gt;" class="s1" d="m206.2 93.6h16c1.1 0 2 0.7 2 1.7v13.2c0 0.9-0.9 1.6-2 1.6h-16c-1.1 0-2-0.7-2-1.6v-13.2c0-1 0.9-1.7 2-1.7z"/>
			<path id="&lt;Path&gt;" class="s1" d="m181.7 154.5h16c1.1 0 2 0.8 2 1.7v13.2c0 0.9-0.9 1.7-2 1.7h-16c-1.1 0-2-0.8-2-1.7v-13.2c0-0.9 0.9-1.7 2-1.7z"/>
			<path id="&lt;Path&gt;" class="s1" d="m181.7 134.6h16c1.1 0 2 0.7 2 1.7v13.2c0 0.9-0.9 1.6-2 1.6h-16c-1.1 0-2-0.7-2-1.6v-13.2c0-1 0.9-1.7 2-1.7z"/>
			<path id="&lt;Path&gt;" class="s1" d="m181.7 114.1h16c1.1 0 2 0.8 2 1.7v13.2c0 0.9-0.9 1.6-2 1.6h-16c-1.1 0-2-0.7-2-1.6v-13.2c0-0.9 0.9-1.7 2-1.7z"/>
			<path id="&lt;Path&gt;" class="s1" d="m181.7 174.2h16c1.1 0 2 0.7 2 1.6v13.2c0 0.9-0.9 1.7-2 1.7h-16c-1.1 0-2-0.8-2-1.7v-13.2c0-0.9 0.9-1.6 2-1.6z"/>
			<path id="&lt;Path&gt;" class="s1" d="m206.2 174.2h16c1.1 0 2 0.7 2 1.6v13.2c0 0.9-0.9 1.7-2 1.7h-16c-1.1 0-2-0.8-2-1.7v-13.2c0-0.9 0.9-1.6 2-1.6z"/>
			<path id="&lt;Path&gt;" class="s1" d="m256.2 174.2h16c1.1 0 2 0.7 2 1.6v13.2c0 0.9-0.9 1.7-2 1.7h-16c-1.1 0-2-0.8-2-1.7v-13.2c0-0.9 0.9-1.6 2-1.6z"/>
			<path id="&lt;Path&gt;" class="s1" d="m231.3 174.2h16c1.1 0 2 0.7 2 1.6v13.2c0 0.9-0.9 1.7-2 1.7h-16c-1.1 0-2-0.8-2-1.7v-13.2c0-0.9 0.9-1.6 2-1.6z"/>
			<path id="&lt;Path&gt;" class="s1" d="m280.5 174.5h16c1.1 0 2 0.7 2 1.6v13.2c0 0.9-0.9 1.7-2 1.7h-16c-1.1 0-2-0.8-2-1.7v-13.2c0-0.9 0.9-1.6 2-1.6z"/>
			<path id="&lt;Path&gt;" class="s1" d="m280.5 154.5h16c1.1 0 2 0.8 2 1.7v13.2c0 0.9-0.9 1.7-2 1.7h-16c-1.1 0-2-0.8-2-1.7v-13.2c0-0.9 0.9-1.7 2-1.7z"/>
			<path id="&lt;Path&gt;" class="s1" d="m280.5 134.3h16c1.1 0 2 0.8 2 1.7v13.2c0 0.9-0.9 1.6-2 1.6h-16c-1.1 0-2-0.7-2-1.6v-13.2c0-0.9 0.9-1.7 2-1.7z"/>
			<path id="&lt;Path&gt;" class="s1" d="m280.5 114.1h16c1.1 0 2 0.8 2 1.7v13.2c0 0.9-0.9 1.6-2 1.6h-16c-1.1 0-2-0.7-2-1.6v-13.2c0-0.9 0.9-1.7 2-1.7z"/>
			<path id="&lt;Path&gt;" class="s1" d="m256.1 154.5h16c1.1 0 2 0.8 2 1.7v13.2c0 0.9-0.9 1.7-2 1.7h-16c-1.1 0-2-0.8-2-1.7v-13.2c0-0.9 0.9-1.7 2-1.7z"/>
			<path id="&lt;Path&gt;" class="s1" d="m50.5 93.6h16c1.1 0 2 0.7 2 1.7v13.2c0 0.9-0.9 1.6-2 1.6h-16c-1.1 0-2-0.7-2-1.6v-13.2c0-1 0.9-1.7 2-1.7z"/>
			<path id="&lt;Path&gt;" class="s1" d="m145.2 93.6h16c1.1 0 2 0.7 2 1.7v13.2c0 0.9-0.9 1.6-2 1.6h-16c-1.1 0-2-0.7-2-1.6v-13.2c0-1 0.9-1.7 2-1.7z"/>
			<path id="&lt;Path&gt;" class="s1" d="m121.7 93.6h16c1.1 0 2 0.7 2 1.7v13.2c0 0.9-0.9 1.6-2 1.6h-16c-1.1 0-2-0.7-2-1.6v-13.2c0-1 0.9-1.7 2-1.7z"/>
			<path id="&lt;Path&gt;" class="s1" d="m98 93.4h16c1.1 0 2 0.8 2 1.7v13.2c0 0.9-0.9 1.7-2 1.7h-16c-1.1 0-2-0.8-2-1.7v-13.2c0-0.9 0.9-1.7 2-1.7z"/>
			<path id="&lt;Path&gt;" class="s1" d="m74.6 93.4h16c1.1 0 2 0.8 2 1.7v13.2c0 0.9-0.9 1.7-2 1.7h-16c-1.1 0-2-0.8-2-1.7v-13.2c0-0.9 0.9-1.7 2-1.7z"/>
			<path id="&lt;Path&gt;" class="s1" d="m98 113.4h16c1.1 0 2 0.7 2 1.6v13.2c0 1-0.9 1.7-2 1.7h-16c-1.1 0-2-0.7-2-1.7v-13.2c0-0.9 0.9-1.6 2-1.6z"/>
			<path id="&lt;Path&gt;" class="s1" d="m98 153.5h16c1.1 0 2 0.8 2 1.7v13.2c0 0.9-0.9 1.6-2 1.6h-16c-1.1 0-2-0.7-2-1.6v-13.2c0-0.9 0.9-1.7 2-1.7z"/>
			<path id="&lt;Path&gt;" class="s1" d="m98 133.3h16c1.1 0 2 0.8 2 1.7v13.2c0 0.9-0.9 1.6-2 1.6h-16c-1.1 0-2-0.7-2-1.6v-13.2c0-0.9 0.9-1.7 2-1.7z"/>
			<path id="&lt;Path&gt;" class="s1" d="m98 173.6h16c1.1 0 2 0.8 2 1.7v13.2c0 0.9-0.9 1.6-2 1.6h-16c-1.1 0-2-0.7-2-1.6v-13.2c0-0.9 0.9-1.7 2-1.7z"/>
			<path id="&lt;Path&gt;" class="s1" d="m181.7 93.6h16c1.1 0 2 0.7 2 1.7v13.2c0 0.9-0.9 1.6-2 1.6h-16c-1.1 0-2-0.7-2-1.6v-13.2c0-1 0.9-1.7 2-1.7z"/>
			<path id="&lt;Path&gt;" class="s1" d="m280.5 93.6h16c1.1 0 2 0.7 2 1.7v13.2c0 0.9-0.9 1.6-2 1.6h-16c-1.1 0-2-0.7-2-1.6v-13.2c0-1 0.9-1.7 2-1.7z"/>
			<path id="&lt;Path&gt;" class="s1" d="m256.1 93.6h16c1.1 0 2 0.7 2 1.7v13.2c0 0.9-0.9 1.6-2 1.6h-16c-1.1 0-2-0.7-2-1.6v-13.2c0-1 0.9-1.7 2-1.7z"/>
			<path id="&lt;Path&gt;" class="s1" d="m231.6 93.6h16c1.1 0 2 0.7 2 1.7v13.2c0 0.9-0.9 1.6-2 1.6h-16c-1.1 0-2-0.7-2-1.6v-13.2c0-1 0.9-1.7 2-1.7z"/>
			<path id="&lt;Path&gt;" class="s1" d="m206.2 93.6h16c1.1 0 2 0.7 2 1.7v13.2c0 0.9-0.9 1.6-2 1.6h-16c-1.1 0-2-0.7-2-1.6v-13.2c0-1 0.9-1.7 2-1.7z"/>
			<path id="&lt;Path&gt;" class="s1" d="m181.7 154.5h16c1.1 0 2 0.8 2 1.7v13.2c0 0.9-0.9 1.7-2 1.7h-16c-1.1 0-2-0.8-2-1.7v-13.2c0-0.9 0.9-1.7 2-1.7z"/>
			<path id="&lt;Path&gt;" class="s1" d="m181.7 134.6h16c1.1 0 2 0.7 2 1.7v13.2c0 0.9-0.9 1.6-2 1.6h-16c-1.1 0-2-0.7-2-1.6v-13.2c0-1 0.9-1.7 2-1.7z"/>
			<path id="&lt;Path&gt;" class="s1" d="m181.7 114.1h16c1.1 0 2 0.8 2 1.7v13.2c0 0.9-0.9 1.6-2 1.6h-16c-1.1 0-2-0.7-2-1.6v-13.2c0-0.9 0.9-1.7 2-1.7z"/>
			<path id="&lt;Path&gt;" class="s1" d="m181.7 174.2h16c1.1 0 2 0.7 2 1.6v13.2c0 0.9-0.9 1.7-2 1.7h-16c-1.1 0-2-0.8-2-1.7v-13.2c0-0.9 0.9-1.6 2-1.6z"/>
			<path id="&lt;Path&gt;" class="s1" d="m206.2 174.2h16c1.1 0 2 0.7 2 1.6v13.2c0 0.9-0.9 1.7-2 1.7h-16c-1.1 0-2-0.8-2-1.7v-13.2c0-0.9 0.9-1.6 2-1.6z"/>
			<path id="&lt;Path&gt;" class="s1" d="m256.2 174.2h16c1.1 0 2 0.7 2 1.6v13.2c0 0.9-0.9 1.7-2 1.7h-16c-1.1 0-2-0.8-2-1.7v-13.2c0-0.9 0.9-1.6 2-1.6z"/>
			<path id="&lt;Path&gt;" class="s1" d="m231.3 174.2h16c1.1 0 2 0.7 2 1.6v13.2c0 0.9-0.9 1.7-2 1.7h-16c-1.1 0-2-0.8-2-1.7v-13.2c0-0.9 0.9-1.6 2-1.6z"/>
			<path id="&lt;Path&gt;" class="s1" d="m280.5 174.5h16c1.1 0 2 0.7 2 1.6v13.2c0 0.9-0.9 1.7-2 1.7h-16c-1.1 0-2-0.8-2-1.7v-13.2c0-0.9 0.9-1.6 2-1.6z"/>
			<path id="&lt;Path&gt;" class="s1" d="m280.5 154.5h16c1.1 0 2 0.8 2 1.7v13.2c0 0.9-0.9 1.7-2 1.7h-16c-1.1 0-2-0.8-2-1.7v-13.2c0-0.9 0.9-1.7 2-1.7z"/>
			<path id="&lt;Path&gt;" class="s1" d="m280.5 134.3h16c1.1 0 2 0.8 2 1.7v13.2c0 0.9-0.9 1.6-2 1.6h-16c-1.1 0-2-0.7-2-1.6v-13.2c0-0.9 0.9-1.7 2-1.7z"/>
			<path id="&lt;Path&gt;" class="s1" d="m280.5 114.1h16c1.1 0 2 0.8 2 1.7v13.2c0 0.9-0.9 1.6-2 1.6h-16c-1.1 0-2-0.7-2-1.6v-13.2c0-0.9 0.9-1.7 2-1.7z"/>
			<path id="&lt;Path&gt;" class="s1" d="m256.1 154.5h16c1.1 0 2 0.8 2 1.7v13.2c0 0.9-0.9 1.7-2 1.7h-16c-1.1 0-2-0.8-2-1.7v-13.2c0-0.9 0.9-1.7 2-1.7z"/>
		</g>
		<g id="&lt;Group&gt;">
			<path id="&lt;Compound Path&gt;" class="s2" d="m409.6 112.8v77h-18.5v-77h-27v-16.3h72.2v16.3z"/>
			<path id="&lt;Compound Path&gt;" class="s2" d="m503.9 147.9h-34.7v41.9h-18.5v-93.3h18.5v35.3h34.7v-35.3h18.5v93.3h-18.5z"/>
			<path id="&lt;Compound Path&gt;" fill-rule="evenodd" class="s2" d="m561 170.6l-6.2 19.2h-19.5l31.8-93.3h21.6l30.9 93.3h-20l-5.7-19.2zm4.9-16.2h22.8l-11.1-36.9z"/>
			<path id="&lt;Compound Path&gt;" class="s2" d="m573.6 87.1l-18.3-19h19.1l11.6 19z"/>
			<path id="&lt;Compound Path&gt;" class="s2" d="m691.3 96.5h17.4v93.3h-18.6l-36.1-66.6-0.3 66.6h-17.3v-93.3h19.6l35.1 65z"/>
			<path id="&lt;Compound Path&gt;" class="s2" d="m783.1 147.9h-34.6v41.9h-18.6v-93.3h18.6v35.3h34.6v-35.3h18.6v93.3h-18.6z"/>
			<path id="&lt;Compound Path&gt;" fill-rule="evenodd" class="s2" d="m942 185.8l-9.8 10.7-10.4-10.6q-5.7 3.7-12.6 5.3-5 1.2-10.2 1.2-8.6 0-16.4-3-11.4-4.4-18-13.9-8.5-12.5-8.5-32.5 0-19.9 8.4-32.1 6.5-9.6 17.9-13.9 8.2-3.1 16.5-3.1 8.4 0 16.2 2.9 11.3 4.5 17.9 14 8.4 12.2 8.4 32.2 0 11.2-2.3 19.3-2.4 8.1-6.8 14zm-42.2-21.5l9.7-10.4 9.4 9.1q3.9-7.6 3.9-20 0-17.6-8.3-26-6.3-6.5-15.7-6.5-9.4 0-15.8 6.5-8.4 8.5-8.4 26 0 17.7 8.3 26.2 6.3 6.5 15.9 6.5 2.8 0 5-0.6 2.3-0.5 4.9-2z"/>
			<path id="&lt;Compound Path&gt;" class="s2" d="m1030.7 96.5v60.5q0 18.1-9.8 27-9.3 8.4-26.8 8.4-7.6 0-14.1-2.2-8.8-3-14.1-9.2-6.9-8.5-6.9-22.7v-61.8h19v60.5q0 9.3 4.5 14 4.4 4.8 11.3 4.8 9.2 0 13.5-4.6 4.3-4.5 4.3-13.4v-61.3z"/>
			<path id="&lt;Compound Path&gt;" fill-rule="evenodd" class="s2" d="m1066.1 170.6l-6.2 19.2h-19.6l31.8-93.3h21.7l30.9 93.3h-20.1l-5.6-19.2zm4.9-16.2h22.8l-11.2-36.9z"/>
			<path id="&lt;Compound Path&gt;" class="s2" d="m1089.1 68.1l14.1 19h-13.9l-7.9-10.7-8 10.7h-13.8l14.1-19z"/>
			<path id="&lt;Compound Path&gt;" class="s2" d="m1196.4 96.5h17.3v93.3h-18.5l-36.1-66.6-0.3 66.6h-17.3v-93.3h19.5l35.2 65z"/>
		</g>
		<g id="&lt;Group&gt;">
			<g id="&lt;Group&gt;">
				<g id="&lt;Group&gt;">
				</g>
			</g>
			<g id="&lt;Group&gt;">
				<g id="&lt;Group&gt;">
				</g>
			</g>
			<g id="&lt;Group&gt;">
				<g id="&lt;Group&gt;">
				</g>
			</g>
			<g id="&lt;Group&gt;">
				<g id="&lt;Group&gt;">
				</g>
			</g>
			<g id="&lt;Group&gt;">
				<g id="&lt;Group&gt;">
				</g>
			</g>
			<g id="&lt;Group&gt;">
				<g id="&lt;Group&gt;">
				</g>
			</g>
			<g id="&lt;Group&gt;">
				<g id="&lt;Group&gt;">
				</g>
			</g>
			<g id="&lt;Group&gt;">
				<g id="&lt;Group&gt;">
				</g>
			</g>
			<g id="&lt;Group&gt;">
				<g id="&lt;Group&gt;">
				</g>
			</g>
			<g id="&lt;Group&gt;">
				<g id="&lt;Group&gt;">
				</g>
			</g>
			<g id="&lt;Group&gt;">
				<g id="&lt;Group&gt;">
				</g>
			</g>
			<g id="&lt;Group&gt;">
				<g id="&lt;Group&gt;">
				</g>
			</g>
			<g id="&lt;Group&gt;">
				<g id="&lt;Group&gt;">
				</g>
			</g>
			<g id="&lt;Group&gt;">
				<g id="&lt;Group&gt;">
				</g>
			</g>
			<g id="&lt;Group&gt;">
				<g id="&lt;Group&gt;">
				</g>
			</g>
			<g id="&lt;Group&gt;">
				<g id="&lt;Group&gt;">
				</g>
			</g>
			<g id="&lt;Group&gt;">
				<g id="&lt;Group&gt;">
				</g>
			</g>
			<g id="&lt;Group&gt;">
				<g id="&lt;Group&gt;">
				</g>
			</g>
			<g id="&lt;Group&gt;">
				<g id="&lt;Group&gt;">
				</g>
			</g>
			<g id="&lt;Group&gt;">
				<g id="&lt;Group&gt;">
				</g>
			</g>
			<g id="&lt;Group&gt;">
				<g id="&lt;Group&gt;">
				</g>
			</g>
			<g id="&lt;Group&gt;">
				<g id="&lt;Group&gt;">
				</g>
			</g>
			<g id="&lt;Group&gt;">
				<g id="&lt;Group&gt;">
				</g>
			</g>
			<g id="&lt;Group&gt;">
				<g id="&lt;Group&gt;">
				</g>
			</g>
			<g id="&lt;Group&gt;">
				<g id="&lt;Group&gt;">
				</g>
			</g>
			<g id="&lt;Group&gt;">
				<g id="&lt;Group&gt;">
				</g>
			</g>
			<g id="&lt;Group&gt;">
				<g id="&lt;Group&gt;">
				</g>
			</g>
			<g id="&lt;Group&gt;">
				<g id="&lt;Group&gt;">
				</g>
			</g>
			<g id="&lt;Group&gt;">
				<g id="&lt;Group&gt;">
				</g>
			</g>
			<g id="&lt;Group&gt;">
				<g id="&lt;Group&gt;">
				</g>
			</g>
			<g id="&lt;Group&gt;">
				<g id="&lt;Group&gt;">
				</g>
			</g>
			<g id="&lt;Group&gt;">
				<g id="&lt;Group&gt;">
				</g>
			</g>
			<g id="&lt;Group&gt;">
				<g id="&lt;Group&gt;">
				</g>
			</g>
			<g id="&lt;Group&gt;">
				<g id="&lt;Group&gt;">
				</g>
			</g>
			<g id="&lt;Group&gt;">
				<g id="&lt;Group&gt;">
				</g>
			</g>
			<g id="&lt;Group&gt;">
				<g id="&lt;Group&gt;">
				</g>
			</g>
			<g id="&lt;Group&gt;">
				<g id="&lt;Group&gt;">
				</g>
			</g>
			<g id="&lt;Group&gt;">
				<g id="&lt;Group&gt;">
				</g>
			</g>
			<g id="&lt;Group&gt;">
				<g id="&lt;Group&gt;">
				</g>
			</g>
			<g id="&lt;Group&gt;">
				<g id="&lt;Group&gt;">
				</g>
			</g>
			<g id="&lt;Group&gt;">
				<g id="&lt;Group&gt;">
				</g>
			</g>
			<g id="&lt;Group&gt;">
				<g id="&lt;Group&gt;">
				</g>
			</g>
			<g id="&lt;Group&gt;">
				<g id="&lt;Group&gt;">
				</g>
			</g>
			<g id="&lt;Group&gt;">
				<g id="&lt;Group&gt;">
				</g>
			</g>
			<g id="&lt;Group&gt;">
				<g id="&lt;Group&gt;">
				</g>
			</g>
			<g id="&lt;Group&gt;">
				<g id="&lt;Group&gt;">
				</g>
			</g>
			<g id="&lt;Group&gt;">
				<g id="&lt;Group&gt;">
				</g>
			</g>
			<g id="&lt;Group&gt;">
				<g id="&lt;Group&gt;">
				</g>
			</g>
			<g id="&lt;Group&gt;">
				<g id="&lt;Group&gt;">
				</g>
			</g>
			<g id="&lt;Group&gt;">
				<g id="&lt;Group&gt;">
				</g>
			</g>
			<g id="&lt;Group&gt;">
				<g id="&lt;Group&gt;">
				</g>
			</g>
			<g id="&lt;Group&gt;">
				<g id="&lt;Group&gt;">
				</g>
			</g>
			<g id="&lt;Group&gt;">
				<g id="&lt;Group&gt;">
				</g>
			</g>
			<g id="&lt;Group&gt;">
				<g id="&lt;Group&gt;">
				</g>
			</g>
			<g id="&lt;Group&gt;">
				<g id="&lt;Group&gt;">
				</g>
			</g>
			<g id="&lt;Group&gt;">
				<g id="&lt;Group&gt;">
				</g>
			</g>
			<g id="&lt;Group&gt;">
				<g id="&lt;Group&gt;">
				</g>
			</g>
			<g id="&lt;Group&gt;">
				<g id="&lt;Group&gt;">
				</g>
			</g>
			<g id="&lt;Group&gt;">
				<g id="&lt;Group&gt;">
				</g>
			</g>
			<g id="&lt;Group&gt;">
				<g id="&lt;Group&gt;">
				</g>
			</g>
			<g id="&lt;Group&gt;">
				<g id="&lt;Group&gt;">
				</g>
			</g>
			<g id="&lt;Group&gt;">
				<g id="&lt;Group&gt;">
				</g>
			</g>
			<g id="&lt;Group&gt;">
				<g id="&lt;Group&gt;">
				</g>
			</g>
			<g id="&lt;Group&gt;">
				<g id="&lt;Group&gt;">
				</g>
			</g>
			<g id="&lt;Group&gt;">
				<g id="&lt;Group&gt;">
				</g>
			</g>
			<g id="&lt;Group&gt;">
				<g id="&lt;Group&gt;">
				</g>
			</g>
			<g id="&lt;Group&gt;">
				<g id="&lt;Group&gt;">
				</g>
			</g>
			<g id="&lt;Group&gt;">
				<g id="&lt;Group&gt;">
				</g>
			</g>
			<g id="&lt;Group&gt;">
				<g id="&lt;Group&gt;">
				</g>
			</g>
			<g id="&lt;Group&gt;">
				<g id="&lt;Group&gt;">
				</g>
			</g>
			<g id="&lt;Group&gt;">
				<g id="&lt;Group&gt;">
				</g>
			</g>
			<g id="&lt;Group&gt;">
				<g id="&lt;Group&gt;">
				</g>
			</g>
			<g id="&lt;Group&gt;">
				<g id="&lt;Group&gt;">
				</g>
			</g>
			<g id="&lt;Group&gt;">
				<g id="&lt;Group&gt;">
				</g>
			</g>
			<g id="&lt;Group&gt;">
				<g id="&lt;Group&gt;">
				</g>
			</g>
			<g id="&lt;Group&gt;">
				<g id="&lt;Group&gt;">
				</g>
			</g>
			<g id="&lt;Group&gt;">
				<g id="&lt;Group&gt;">
				</g>
			</g>
			<g id="&lt;Group&gt;">
				<g id="&lt;Group&gt;">
				</g>
			</g>
			<g id="&lt;Group&gt;">
				<g id="&lt;Group&gt;">
				</g>
			</g>
			<g id="&lt;Group&gt;">
				<g id="&lt;Group&gt;">
				</g>
			</g>
			<g id="&lt;Group&gt;">
				<g id="&lt;Group&gt;">
				</g>
			</g>
			<g id="&lt;Group&gt;">
				<g id="&lt;Group&gt;">
				</g>
			</g>
			<g id="&lt;Group&gt;">
				<g id="&lt;Group&gt;">
				</g>
			</g>
			<g id="&lt;Group&gt;">
				<g id="&lt;Group&gt;">
				</g>
			</g>
			<g id="&lt;Group&gt;">
				<g id="&lt;Group&gt;">
				</g>
			</g>
			<g id="&lt;Group&gt;">
				<g id="&lt;Group&gt;">
				</g>
			</g>
			<g id="&lt;Group&gt;">
				<g id="&lt;Group&gt;">
				</g>
			</g>
			<g id="&lt;Group&gt;">
				<g id="&lt;Group&gt;">
				</g>
			</g>
			<g id="&lt;Group&gt;">
				<g id="&lt;Group&gt;">
				</g>
			</g>
			<g id="&lt;Group&gt;">
				<g id="&lt;Group&gt;">
				</g>
			</g>
			<g id="&lt;Group&gt;">
				<g id="&lt;Group&gt;">
				</g>
			</g>
			<g id="&lt;Group&gt;">
				<g id="&lt;Group&gt;">
				</g>
			</g>
			<g id="&lt;Group&gt;">
				<g id="&lt;Group&gt;">
				</g>
			</g>
			<g id="&lt;Group&gt;">
				<g id="&lt;Group&gt;">
				</g>
			</g>
			<g id="&lt;Group&gt;">
				<g id="&lt;Group&gt;">
				</g>
			</g>
			<g id="&lt;Group&gt;">
				<g id="&lt;Group&gt;">
				</g>
			</g>
			<g id="&lt;Group&gt;">
				<g id="&lt;Group&gt;">
				</g>
			</g>
			<g id="&lt;Group&gt;">
				<g id="&lt;Group&gt;">
				</g>
			</g>
			<g id="&lt;Group&gt;">
				<g id="&lt;Group&gt;">
				</g>
			</g>
			<g id="&lt;Group&gt;">
				<g id="&lt;Group&gt;">
				</g>
			</g>
			<g id="&lt;Group&gt;">
				<g id="&lt;Group&gt;">
				</g>
			</g>
			<g id="&lt;Group&gt;">
				<g id="&lt;Group&gt;">
				</g>
			</g>
			<g id="&lt;Group&gt;">
				<g id="&lt;Group&gt;">
				</g>
			</g>
			<g id="&lt;Group&gt;">
				<g id="&lt;Group&gt;">
				</g>
			</g>
			<g id="&lt;Group&gt;">
				<g id="&lt;Group&gt;">
				</g>
			</g>
			<g id="&lt;Group&gt;">
				<g id="&lt;Group&gt;">
				</g>
			</g>
			<g id="&lt;Group&gt;">
				<g id="&lt;Group&gt;">
				</g>
			</g>
			<g id="&lt;Group&gt;">
				<g id="&lt;Group&gt;">
				</g>
			</g>
			<g id="&lt;Group&gt;">
				<g id="&lt;Group&gt;">
				</g>
			</g>
			<g id="&lt;Group&gt;">
				<g id="&lt;Group&gt;">
				</g>
			</g>
			<g id="&lt;Group&gt;">
				<g id="&lt;Group&gt;">
				</g>
			</g>
			<g id="&lt;Group&gt;">
				<g id="&lt;Group&gt;">
				</g>
			</g>
			<g id="&lt;Group&gt;">
				<g id="&lt;Group&gt;">
				</g>
			</g>
			<g id="&lt;Group&gt;">
				<g id="&lt;Group&gt;">
				</g>
			</g>
			<g id="&lt;Group&gt;">
				<g id="&lt;Group&gt;">
				</g>
			</g>
			<g id="&lt;Group&gt;">
				<g id="&lt;Group&gt;">
				</g>
			</g>
			<g id="&lt;Group&gt;">
				<g id="&lt;Group&gt;">
				</g>
			</g>
			<g id="&lt;Group&gt;">
				<g id="&lt;Group&gt;">
				</g>
			</g>
			<g id="&lt;Group&gt;">
				<g id="&lt;Group&gt;">
				</g>
			</g>
			<g id="&lt;Group&gt;">
				<g id="&lt;Group&gt;">
				</g>
			</g>
			<g id="&lt;Group&gt;">
				<g id="&lt;Group&gt;">
				</g>
			</g>
			<g id="&lt;Group&gt;">
				<g id="&lt;Group&gt;">
				</g>
			</g>
			<g id="&lt;Group&gt;">
				<g id="&lt;Group&gt;">
				</g>
			</g>
			<g id="&lt;Group&gt;">
				<g id="&lt;Group&gt;">
				</g>
			</g>
			<g id="&lt;Group&gt;">
				<g id="&lt;Group&gt;">
				</g>
			</g>
			<g id="&lt;Group&gt;">
				<g id="&lt;Group&gt;">
				</g>
			</g>
			<g id="&lt;Group&gt;">
				<g id="&lt;Group&gt;">
				</g>
			</g>
			<g id="&lt;Group&gt;">
				<g id="&lt;Group&gt;">
				</g>
			</g>
		</g>
	</g>
</svg>